<?xml version="1.0" standalone="no" ?>
<!DOCTYPE svg PUBLIC "-//W3C//DTD SVG 1.1//EN" "http://www.w3.org/Graphics/SVG/1.1/DTD/svg11.dtd">
<svg width="290" height="60" viewBox="0 0 290 60" version="1.1" xmlns="http://www.w3.org/2000/svg">
	<desc>qweeqeqsda</desc>
	<g id="bars" fill="rgb(0,0,0)" stroke="none">
		<rect x="0" y="0" width="4" height="60" />
		<rect x="6" y="0" width="2" height="60" />
		<rect x="12" y="0" width="2" height="60" />
		<rect x="22" y="0" width="2" height="60" />
		<rect x="28" y="0" width="2" height="60" />
		<rect x="32" y="0" width="8" height="60" />
		<rect x="44" y="0" width="8" height="60" />
		<rect x="56" y="0" width="2" height="60" />
		<rect x="60" y="0" width="2" height="60" />
		<rect x="66" y="0" width="2" height="60" />
		<rect x="70" y="0" width="4" height="60" />
		<rect x="78" y="0" width="2" height="60" />
		<rect x="88" y="0" width="2" height="60" />
		<rect x="92" y="0" width="4" height="60" />
		<rect x="100" y="0" width="2" height="60" />
		<rect x="110" y="0" width="2" height="60" />
		<rect x="116" y="0" width="2" height="60" />
		<rect x="120" y="0" width="8" height="60" />
		<rect x="132" y="0" width="2" height="60" />
		<rect x="136" y="0" width="4" height="60" />
		<rect x="144" y="0" width="2" height="60" />
		<rect x="154" y="0" width="2" height="60" />
		<rect x="160" y="0" width="2" height="60" />
		<rect x="164" y="0" width="8" height="60" />
		<rect x="176" y="0" width="2" height="60" />
		<rect x="180" y="0" width="8" height="60" />
		<rect x="192" y="0" width="2" height="60" />
		<rect x="198" y="0" width="2" height="60" />
		<rect x="208" y="0" width="2" height="60" />
		<rect x="214" y="0" width="4" height="60" />
		<rect x="220" y="0" width="2" height="60" />
		<rect x="226" y="0" width="2" height="60" />
		<rect x="230" y="0" width="4" height="60" />
		<rect x="242" y="0" width="2" height="60" />
		<rect x="250" y="0" width="2" height="60" />
		<rect x="254" y="0" width="4" height="60" />
		<rect x="264" y="0" width="4" height="60" />
		<rect x="274" y="0" width="6" height="60" />
		<rect x="282" y="0" width="2" height="60" />
		<rect x="286" y="0" width="4" height="60" />
	</g>
</svg>
