<?xml version="1.0" standalone="no" ?>
<!DOCTYPE svg PUBLIC "-//W3C//DTD SVG 1.1//EN" "http://www.w3.org/Graphics/SVG/1.1/DTD/svg11.dtd">
<svg width="532" height="60" viewBox="0 0 532 60" version="1.1" xmlns="http://www.w3.org/2000/svg">
	<desc>Totam est illo vel-03</desc>
	<g id="bars" fill="rgb(0,0,0)" stroke="none">
		<rect x="0" y="0" width="4" height="60" />
		<rect x="6" y="0" width="2" height="60" />
		<rect x="12" y="0" width="2" height="60" />
		<rect x="22" y="0" width="4" height="60" />
		<rect x="28" y="0" width="6" height="60" />
		<rect x="40" y="0" width="2" height="60" />
		<rect x="44" y="0" width="2" height="60" />
		<rect x="52" y="0" width="8" height="60" />
		<rect x="62" y="0" width="2" height="60" />
		<rect x="66" y="0" width="2" height="60" />
		<rect x="72" y="0" width="8" height="60" />
		<rect x="82" y="0" width="2" height="60" />
		<rect x="88" y="0" width="2" height="60" />
		<rect x="94" y="0" width="2" height="60" />
		<rect x="98" y="0" width="4" height="60" />
		<rect x="110" y="0" width="8" height="60" />
		<rect x="120" y="0" width="6" height="60" />
		<rect x="128" y="0" width="2" height="60" />
		<rect x="132" y="0" width="4" height="60" />
		<rect x="138" y="0" width="4" height="60" />
		<rect x="146" y="0" width="4" height="60" />
		<rect x="154" y="0" width="2" height="60" />
		<rect x="158" y="0" width="4" height="60" />
		<rect x="166" y="0" width="2" height="60" />
		<rect x="176" y="0" width="2" height="60" />
		<rect x="180" y="0" width="8" height="60" />
		<rect x="192" y="0" width="2" height="60" />
		<rect x="198" y="0" width="2" height="60" />
		<rect x="204" y="0" width="8" height="60" />
		<rect x="214" y="0" width="2" height="60" />
		<rect x="220" y="0" width="4" height="60" />
		<rect x="226" y="0" width="4" height="60" />
		<rect x="234" y="0" width="4" height="60" />
		<rect x="242" y="0" width="2" height="60" />
		<rect x="252" y="0" width="4" height="60" />
		<rect x="258" y="0" width="2" height="60" />
		<rect x="264" y="0" width="4" height="60" />
		<rect x="272" y="0" width="2" height="60" />
		<rect x="276" y="0" width="2" height="60" />
		<rect x="286" y="0" width="4" height="60" />
		<rect x="294" y="0" width="2" height="60" />
		<rect x="298" y="0" width="2" height="60" />
		<rect x="308" y="0" width="2" height="60" />
		<rect x="316" y="0" width="8" height="60" />
		<rect x="326" y="0" width="2" height="60" />
		<rect x="330" y="0" width="4" height="60" />
		<rect x="336" y="0" width="4" height="60" />
		<rect x="344" y="0" width="4" height="60" />
		<rect x="352" y="0" width="8" height="60" />
		<rect x="362" y="0" width="2" height="60" />
		<rect x="368" y="0" width="2" height="60" />
		<rect x="374" y="0" width="2" height="60" />
		<rect x="378" y="0" width="4" height="60" />
		<rect x="386" y="0" width="2" height="60" />
		<rect x="396" y="0" width="4" height="60" />
		<rect x="404" y="0" width="2" height="60" />
		<rect x="408" y="0" width="2" height="60" />
		<rect x="418" y="0" width="2" height="60" />
		<rect x="424" y="0" width="4" height="60" />
		<rect x="430" y="0" width="6" height="60" />
		<rect x="440" y="0" width="2" height="60" />
		<rect x="446" y="0" width="6" height="60" />
		<rect x="454" y="0" width="4" height="60" />
		<rect x="462" y="0" width="4" height="60" />
		<rect x="470" y="0" width="2" height="60" />
		<rect x="474" y="0" width="6" height="60" />
		<rect x="484" y="0" width="2" height="60" />
		<rect x="488" y="0" width="2" height="60" />
		<rect x="498" y="0" width="4" height="60" />
		<rect x="506" y="0" width="4" height="60" />
		<rect x="516" y="0" width="6" height="60" />
		<rect x="524" y="0" width="2" height="60" />
		<rect x="528" y="0" width="4" height="60" />
	</g>
</svg>
