<?xml version="1.0" standalone="no" ?>
<!DOCTYPE svg PUBLIC "-//W3C//DTD SVG 1.1//EN" "http://www.w3.org/Graphics/SVG/1.1/DTD/svg11.dtd">
<svg width="268" height="60" viewBox="0 0 268 60" version="1.1" xmlns="http://www.w3.org/2000/svg">
	<desc>PRD277388789</desc>
	<g id="bars" fill="rgb(0,0,0)" stroke="none">
		<rect x="0" y="0" width="4" height="60" />
		<rect x="6" y="0" width="2" height="60" />
		<rect x="12" y="0" width="2" height="60" />
		<rect x="22" y="0" width="6" height="60" />
		<rect x="30" y="0" width="6" height="60" />
		<rect x="38" y="0" width="4" height="60" />
		<rect x="44" y="0" width="4" height="60" />
		<rect x="54" y="0" width="2" height="60" />
		<rect x="58" y="0" width="6" height="60" />
		<rect x="66" y="0" width="2" height="60" />
		<rect x="70" y="0" width="4" height="60" />
		<rect x="80" y="0" width="2" height="60" />
		<rect x="88" y="0" width="4" height="60" />
		<rect x="96" y="0" width="6" height="60" />
		<rect x="106" y="0" width="2" height="60" />
		<rect x="110" y="0" width="2" height="60" />
		<rect x="114" y="0" width="6" height="60" />
		<rect x="122" y="0" width="8" height="60" />
		<rect x="132" y="0" width="8" height="60" />
		<rect x="142" y="0" width="6" height="60" />
		<rect x="150" y="0" width="2" height="60" />
		<rect x="154" y="0" width="2" height="60" />
		<rect x="162" y="0" width="4" height="60" />
		<rect x="172" y="0" width="2" height="60" />
		<rect x="176" y="0" width="8" height="60" />
		<rect x="188" y="0" width="2" height="60" />
		<rect x="192" y="0" width="2" height="60" />
		<rect x="198" y="0" width="4" height="60" />
		<rect x="204" y="0" width="4" height="60" />
		<rect x="210" y="0" width="8" height="60" />
		<rect x="220" y="0" width="8" height="60" />
		<rect x="234" y="0" width="2" height="60" />
		<rect x="238" y="0" width="2" height="60" />
		<rect x="242" y="0" width="4" height="60" />
		<rect x="252" y="0" width="6" height="60" />
		<rect x="260" y="0" width="2" height="60" />
		<rect x="264" y="0" width="4" height="60" />
	</g>
</svg>
