<?xml version="1.0" standalone="no" ?>
<!DOCTYPE svg PUBLIC "-//W3C//DTD SVG 1.1//EN" "http://www.w3.org/Graphics/SVG/1.1/DTD/svg11.dtd">
<svg width="510" height="60" viewBox="0 0 510 60" version="1.1" xmlns="http://www.w3.org/2000/svg">
	<desc>Est quia omnis minim</desc>
	<g id="bars" fill="rgb(0,0,0)" stroke="none">
		<rect x="0" y="0" width="4" height="60" />
		<rect x="6" y="0" width="2" height="60" />
		<rect x="12" y="0" width="2" height="60" />
		<rect x="22" y="0" width="2" height="60" />
		<rect x="30" y="0" width="4" height="60" />
		<rect x="36" y="0" width="2" height="60" />
		<rect x="44" y="0" width="2" height="60" />
		<rect x="48" y="0" width="8" height="60" />
		<rect x="60" y="0" width="2" height="60" />
		<rect x="66" y="0" width="2" height="60" />
		<rect x="72" y="0" width="8" height="60" />
		<rect x="82" y="0" width="2" height="60" />
		<rect x="88" y="0" width="4" height="60" />
		<rect x="94" y="0" width="4" height="60" />
		<rect x="102" y="0" width="4" height="60" />
		<rect x="110" y="0" width="2" height="60" />
		<rect x="116" y="0" width="2" height="60" />
		<rect x="120" y="0" width="8" height="60" />
		<rect x="132" y="0" width="2" height="60" />
		<rect x="138" y="0" width="8" height="60" />
		<rect x="150" y="0" width="2" height="60" />
		<rect x="154" y="0" width="2" height="60" />
		<rect x="164" y="0" width="4" height="60" />
		<rect x="170" y="0" width="2" height="60" />
		<rect x="176" y="0" width="2" height="60" />
		<rect x="182" y="0" width="2" height="60" />
		<rect x="186" y="0" width="4" height="60" />
		<rect x="198" y="0" width="4" height="60" />
		<rect x="204" y="0" width="4" height="60" />
		<rect x="212" y="0" width="4" height="60" />
		<rect x="220" y="0" width="2" height="60" />
		<rect x="228" y="0" width="8" height="60" />
		<rect x="238" y="0" width="2" height="60" />
		<rect x="242" y="0" width="8" height="60" />
		<rect x="252" y="0" width="6" height="60" />
		<rect x="260" y="0" width="2" height="60" />
		<rect x="264" y="0" width="4" height="60" />
		<rect x="276" y="0" width="2" height="60" />
		<rect x="280" y="0" width="2" height="60" />
		<rect x="286" y="0" width="2" height="60" />
		<rect x="296" y="0" width="4" height="60" />
		<rect x="302" y="0" width="2" height="60" />
		<rect x="308" y="0" width="2" height="60" />
		<rect x="312" y="0" width="8" height="60" />
		<rect x="324" y="0" width="2" height="60" />
		<rect x="330" y="0" width="4" height="60" />
		<rect x="336" y="0" width="4" height="60" />
		<rect x="344" y="0" width="4" height="60" />
		<rect x="352" y="0" width="8" height="60" />
		<rect x="362" y="0" width="6" height="60" />
		<rect x="370" y="0" width="2" height="60" />
		<rect x="374" y="0" width="2" height="60" />
		<rect x="384" y="0" width="4" height="60" />
		<rect x="390" y="0" width="2" height="60" />
		<rect x="396" y="0" width="4" height="60" />
		<rect x="408" y="0" width="2" height="60" />
		<rect x="412" y="0" width="2" height="60" />
		<rect x="418" y="0" width="2" height="60" />
		<rect x="428" y="0" width="4" height="60" />
		<rect x="434" y="0" width="2" height="60" />
		<rect x="440" y="0" width="8" height="60" />
		<rect x="450" y="0" width="6" height="60" />
		<rect x="458" y="0" width="2" height="60" />
		<rect x="462" y="0" width="8" height="60" />
		<rect x="474" y="0" width="2" height="60" />
		<rect x="480" y="0" width="2" height="60" />
		<rect x="484" y="0" width="4" height="60" />
		<rect x="494" y="0" width="6" height="60" />
		<rect x="502" y="0" width="2" height="60" />
		<rect x="506" y="0" width="4" height="60" />
	</g>
</svg>
