<?xml version="1.0" encoding="UTF-8"?>
<svg xmlns="http://www.w3.org/2000/svg" version="1.1" width="220" height="220" viewBox="0 0 220 220"><rect x="0" y="0" width="220" height="220" fill="#fefefe"/><g transform="scale(5.946)"><g transform="translate(4.000,4.000)"><path fill-rule="evenodd" d="M10 0L10 2L11 2L11 0ZM12 0L12 1L13 1L13 2L12 2L12 4L14 4L14 5L11 5L11 6L10 6L10 4L11 4L11 3L8 3L8 4L9 4L9 5L8 5L8 7L9 7L9 8L6 8L6 9L5 9L5 8L0 8L0 9L1 9L1 10L0 10L0 12L1 12L1 11L2 11L2 12L3 12L3 13L1 13L1 15L0 15L0 16L1 16L1 17L0 17L0 21L1 21L1 18L3 18L3 19L2 19L2 20L3 20L3 19L4 19L4 21L8 21L8 23L9 23L9 21L8 21L8 20L5 20L5 19L4 19L4 17L3 17L3 16L2 16L2 15L3 15L3 13L4 13L4 15L9 15L9 14L10 14L10 17L12 17L12 18L13 18L13 19L12 19L12 21L13 21L13 20L14 20L14 21L18 21L18 20L14 20L14 19L19 19L19 21L20 21L20 22L19 22L19 23L18 23L18 24L15 24L15 23L16 23L16 22L15 22L15 23L14 23L14 24L15 24L15 25L12 25L12 23L13 23L13 22L11 22L11 19L10 19L10 24L11 24L11 25L12 25L12 26L13 26L13 27L12 27L12 29L13 29L13 28L14 28L14 29L15 29L15 28L14 28L14 27L16 27L16 28L17 28L17 29L20 29L20 28L21 28L21 27L22 27L22 29L23 29L23 27L25 27L25 28L24 28L24 29L27 29L27 28L28 28L28 26L29 26L29 24L28 24L28 23L27 23L27 22L29 22L29 20L28 20L28 19L27 19L27 16L28 16L28 15L27 15L27 14L25 14L25 13L27 13L27 12L28 12L28 11L27 11L27 12L26 12L26 11L25 11L25 9L26 9L26 8L25 8L25 9L24 9L24 8L23 8L23 9L22 9L22 8L21 8L21 3L20 3L20 4L18 4L18 3L19 3L19 1L21 1L21 0L19 0L19 1L17 1L17 0L16 0L16 1L14 1L14 0ZM8 1L8 2L9 2L9 1ZM16 1L16 2L17 2L17 3L15 3L15 5L14 5L14 6L13 6L13 7L12 7L12 6L11 6L11 7L12 7L12 9L11 9L11 8L10 8L10 9L8 9L8 11L5 11L5 9L3 9L3 10L2 10L2 11L5 11L5 12L8 12L8 11L9 11L9 12L11 12L11 13L10 13L10 14L13 14L13 15L12 15L12 17L14 17L14 18L18 18L18 17L20 17L20 15L22 15L22 14L19 14L19 13L20 13L20 12L21 12L21 10L22 10L22 9L21 9L21 8L20 8L20 10L18 10L18 9L19 9L19 7L20 7L20 5L18 5L18 6L17 6L17 8L16 8L16 6L15 6L15 5L16 5L16 4L17 4L17 3L18 3L18 2L17 2L17 1ZM13 2L13 3L14 3L14 2ZM9 6L9 7L10 7L10 6ZM14 6L14 7L15 7L15 6ZM18 6L18 7L19 7L19 6ZM13 8L13 9L12 9L12 10L13 10L13 11L12 11L12 13L14 13L14 15L16 15L16 16L17 16L17 17L18 17L18 16L17 16L17 13L18 13L18 12L20 12L20 11L18 11L18 12L17 12L17 13L16 13L16 12L15 12L15 11L17 11L17 9L18 9L18 8L17 8L17 9L16 9L16 10L14 10L14 8ZM27 8L27 9L28 9L28 10L29 10L29 9L28 9L28 8ZM6 9L6 10L7 10L7 9ZM10 9L10 11L11 11L11 9ZM13 11L13 12L14 12L14 13L15 13L15 14L16 14L16 13L15 13L15 12L14 12L14 11ZM22 11L22 13L25 13L25 12L23 12L23 11ZM6 13L6 14L7 14L7 13ZM28 13L28 14L29 14L29 13ZM23 14L23 15L24 15L24 16L21 16L21 17L25 17L25 18L24 18L24 20L25 20L25 21L26 21L26 20L27 20L27 19L26 19L26 17L25 17L25 16L27 16L27 15L25 15L25 14ZM6 16L6 17L7 17L7 18L6 18L6 19L7 19L7 18L8 18L8 19L9 19L9 16ZM28 17L28 18L29 18L29 17ZM19 18L19 19L21 19L21 20L22 20L22 19L23 19L23 18L22 18L22 19L21 19L21 18ZM21 21L21 24L24 24L24 21ZM22 22L22 23L23 23L23 22ZM19 23L19 24L18 24L18 25L15 25L15 26L19 26L19 25L20 25L20 26L25 26L25 25L26 25L26 24L27 24L27 23L25 23L25 25L20 25L20 23ZM8 24L8 29L10 29L10 28L9 28L9 27L11 27L11 26L10 26L10 25L9 25L9 24ZM17 27L17 28L20 28L20 27ZM26 27L26 28L27 28L27 27ZM0 0L0 7L7 7L7 0ZM1 1L1 6L6 6L6 1ZM2 2L2 5L5 5L5 2ZM29 0L22 0L22 7L29 7ZM28 1L23 1L23 6L28 6ZM27 2L24 2L24 5L27 5ZM0 29L7 29L7 22L0 22ZM1 28L6 28L6 23L1 23ZM2 27L5 27L5 24L2 24Z" fill="#000000"/></g></g></svg>
