<?xml version="1.0" encoding="UTF-8"?>
<svg xmlns="http://www.w3.org/2000/svg" version="1.1" width="220" height="220" viewBox="0 0 220 220"><rect x="0" y="0" width="220" height="220" fill="#fefefe"/><g transform="scale(5.946)"><g transform="translate(4.000,4.000)"><path fill-rule="evenodd" d="M8 0L8 1L9 1L9 2L8 2L8 5L9 5L9 4L11 4L11 5L10 5L10 10L9 10L9 8L8 8L8 9L7 9L7 8L6 8L6 9L7 9L7 10L6 10L6 11L5 11L5 12L6 12L6 13L5 13L5 15L4 15L4 14L3 14L3 13L4 13L4 10L5 10L5 9L4 9L4 8L0 8L0 11L1 11L1 12L0 12L0 15L1 15L1 14L2 14L2 16L3 16L3 17L2 17L2 18L3 18L3 20L1 20L1 21L3 21L3 20L4 20L4 18L6 18L6 19L7 19L7 20L5 20L5 21L8 21L8 22L9 22L9 21L8 21L8 19L7 19L7 18L6 18L6 17L7 17L7 16L5 16L5 15L8 15L8 17L9 17L9 18L11 18L11 17L10 17L10 16L12 16L12 17L13 17L13 16L12 16L12 14L13 14L13 15L14 15L14 17L15 17L15 18L13 18L13 21L15 21L15 20L16 20L16 19L17 19L17 21L19 21L19 20L20 20L20 22L17 22L17 23L15 23L15 22L14 22L14 23L11 23L11 20L12 20L12 19L11 19L11 20L10 20L10 23L9 23L9 25L8 25L8 29L12 29L12 28L14 28L14 27L15 27L15 26L16 26L16 25L17 25L17 27L16 27L16 28L15 28L15 29L16 29L16 28L17 28L17 27L18 27L18 26L20 26L20 28L19 28L19 29L24 29L24 28L23 28L23 27L24 27L24 26L26 26L26 27L25 27L25 29L26 29L26 27L27 27L27 29L28 29L28 27L29 27L29 23L28 23L28 22L29 22L29 21L27 21L27 18L28 18L28 15L29 15L29 13L27 13L27 12L25 12L25 13L26 13L26 15L27 15L27 17L26 17L26 16L24 16L24 15L25 15L25 14L24 14L24 15L22 15L22 14L23 14L23 13L22 13L22 12L24 12L24 11L23 11L23 10L25 10L25 9L27 9L27 8L24 8L24 9L22 9L22 8L21 8L21 9L22 9L22 12L20 12L20 13L18 13L18 12L17 12L17 11L19 11L19 10L20 10L20 11L21 11L21 10L20 10L20 9L19 9L19 8L20 8L20 7L21 7L21 5L20 5L20 4L21 4L21 3L20 3L20 2L21 2L21 0L19 0L19 1L20 1L20 2L19 2L19 3L20 3L20 4L19 4L19 5L17 5L17 4L18 4L18 3L17 3L17 4L15 4L15 2L14 2L14 0L12 0L12 1L11 1L11 0L10 0L10 1L9 1L9 0ZM16 0L16 1L17 1L17 0ZM11 2L11 4L12 4L12 3L13 3L13 2ZM13 4L13 5L12 5L12 6L11 6L11 8L12 8L12 6L13 6L13 9L14 9L14 11L16 11L16 9L15 9L15 8L14 8L14 6L15 6L15 7L16 7L16 6L17 6L17 7L18 7L18 6L17 6L17 5L15 5L15 4ZM8 6L8 7L9 7L9 6ZM19 6L19 7L20 7L20 6ZM28 8L28 10L26 10L26 11L28 11L28 12L29 12L29 11L28 11L28 10L29 10L29 8ZM2 9L2 10L1 10L1 11L3 11L3 10L4 10L4 9ZM11 9L11 10L12 10L12 9ZM17 9L17 10L18 10L18 9ZM7 10L7 11L6 11L6 12L7 12L7 13L6 13L6 14L7 14L7 13L9 13L9 16L10 16L10 14L11 14L11 13L12 13L12 12L13 12L13 11L11 11L11 13L9 13L9 12L8 12L8 10ZM1 12L1 13L3 13L3 12ZM14 12L14 13L13 13L13 14L15 14L15 16L16 16L16 17L17 17L17 18L19 18L19 19L20 19L20 20L21 20L21 18L22 18L22 19L23 19L23 20L24 20L24 19L25 19L25 20L26 20L26 18L25 18L25 17L24 17L24 19L23 19L23 16L22 16L22 17L21 17L21 16L20 16L20 15L21 15L21 14L22 14L22 13L20 13L20 15L18 15L18 14L15 14L15 12ZM16 12L16 13L17 13L17 12ZM16 15L16 16L17 16L17 15ZM4 16L4 17L3 17L3 18L4 18L4 17L5 17L5 16ZM18 16L18 17L19 17L19 16ZM20 17L20 18L21 18L21 17ZM0 18L0 19L1 19L1 18ZM21 21L21 24L24 24L24 21ZM22 22L22 23L23 23L23 22ZM26 22L26 24L25 24L25 25L26 25L26 26L27 26L27 27L28 27L28 25L26 25L26 24L28 24L28 23L27 23L27 22ZM10 23L10 24L11 24L11 23ZM17 23L17 24L18 24L18 25L20 25L20 24L19 24L19 23ZM12 24L12 26L11 26L11 25L10 25L10 26L9 26L9 27L10 27L10 28L12 28L12 26L13 26L13 27L14 27L14 26L15 26L15 24ZM13 25L13 26L14 26L14 25ZM22 25L22 26L21 26L21 28L22 28L22 27L23 27L23 25ZM0 0L0 7L7 7L7 0ZM1 1L1 6L6 6L6 1ZM2 2L2 5L5 5L5 2ZM29 0L22 0L22 7L29 7ZM28 1L23 1L23 6L28 6ZM27 2L24 2L24 5L27 5ZM0 29L7 29L7 22L0 22ZM1 28L6 28L6 23L1 23ZM2 27L5 27L5 24L2 24Z" fill="#000000"/></g></g></svg>
