<?xml version="1.0" encoding="UTF-8"?>
<svg xmlns="http://www.w3.org/2000/svg" version="1.1" width="220" height="220" viewBox="0 0 220 220"><rect x="0" y="0" width="220" height="220" fill="#fefefe"/><g transform="scale(6.667)"><g transform="translate(4.000,4.000)"><path fill-rule="evenodd" d="M8 0L8 1L9 1L9 5L10 5L10 9L11 9L11 11L12 11L12 12L9 12L9 9L7 9L7 8L6 8L6 9L5 9L5 8L3 8L3 10L0 10L0 11L3 11L3 12L2 12L2 14L1 14L1 12L0 12L0 17L1 17L1 15L4 15L4 16L2 16L2 17L8 17L8 18L9 18L9 17L10 17L10 18L11 18L11 19L13 19L13 20L12 20L12 21L11 21L11 20L10 20L10 21L9 21L9 20L8 20L8 22L10 22L10 23L8 23L8 25L9 25L9 24L10 24L10 25L11 25L11 24L10 24L10 23L12 23L12 21L13 21L13 20L14 20L14 21L16 21L16 22L13 22L13 23L15 23L15 24L16 24L16 25L17 25L17 24L16 24L16 23L18 23L18 25L19 25L19 24L21 24L21 25L22 25L22 24L24 24L24 25L25 25L25 22L20 22L20 23L18 23L18 22L19 22L19 21L21 21L21 16L22 16L22 18L24 18L24 21L25 21L25 18L24 18L24 16L25 16L25 14L24 14L24 13L25 13L25 10L24 10L24 9L25 9L25 8L24 8L24 9L19 9L19 8L18 8L18 9L19 9L19 10L21 10L21 12L24 12L24 13L23 13L23 14L21 14L21 13L20 13L20 15L19 15L19 16L16 16L16 15L18 15L18 14L17 14L17 10L16 10L16 9L17 9L17 6L16 6L16 7L15 7L15 5L14 5L14 7L13 7L13 5L11 5L11 3L13 3L13 4L14 4L14 2L11 2L11 0L10 0L10 1L9 1L9 0ZM12 0L12 1L13 1L13 0ZM14 0L14 1L15 1L15 0ZM16 0L16 2L15 2L15 4L16 4L16 5L17 5L17 3L16 3L16 2L17 2L17 0ZM10 2L10 3L11 3L11 2ZM8 6L8 8L9 8L9 6ZM11 6L11 9L12 9L12 11L13 11L13 13L12 13L12 14L11 14L11 13L9 13L9 12L8 12L8 11L5 11L5 10L3 10L3 11L5 11L5 12L3 12L3 13L4 13L4 15L5 15L5 16L7 16L7 15L5 15L5 13L6 13L6 14L8 14L8 16L12 16L12 17L11 17L11 18L14 18L14 17L15 17L15 20L16 20L16 16L15 16L15 15L14 15L14 12L15 12L15 11L13 11L13 10L15 10L15 9L16 9L16 8L15 8L15 9L14 9L14 8L13 8L13 7L12 7L12 6ZM0 8L0 9L2 9L2 8ZM6 9L6 10L7 10L7 9ZM22 10L22 11L24 11L24 10ZM6 12L6 13L7 13L7 12ZM18 12L18 13L19 13L19 12ZM8 13L8 14L9 14L9 15L11 15L11 14L9 14L9 13ZM20 15L20 16L21 16L21 15ZM23 15L23 16L24 16L24 15ZM13 16L13 17L14 17L14 16ZM17 17L17 20L20 20L20 17ZM18 18L18 19L19 19L19 18ZM10 21L10 22L11 22L11 21ZM21 23L21 24L22 24L22 23ZM12 24L12 25L13 25L13 24ZM0 0L0 7L7 7L7 0ZM1 1L1 6L6 6L6 1ZM2 2L2 5L5 5L5 2ZM25 0L18 0L18 7L25 7ZM24 1L19 1L19 6L24 6ZM23 2L20 2L20 5L23 5ZM0 25L7 25L7 18L0 18ZM1 24L6 24L6 19L1 19ZM2 23L5 23L5 20L2 20Z" fill="#000000"/></g></g></svg>
