<?xml version="1.0" encoding="UTF-8"?>
<svg xmlns="http://www.w3.org/2000/svg" version="1.1" width="220" height="220" viewBox="0 0 220 220"><rect x="0" y="0" width="220" height="220" fill="#fefefe"/><g transform="scale(6.667)"><g transform="translate(4.000,4.000)"><path fill-rule="evenodd" d="M8 0L8 4L9 4L9 3L10 3L10 5L8 5L8 7L9 7L9 9L10 9L10 10L8 10L8 9L7 9L7 8L4 8L4 9L3 9L3 10L2 10L2 11L1 11L1 12L2 12L2 13L0 13L0 14L2 14L2 13L3 13L3 14L4 14L4 11L5 11L5 13L7 13L7 12L6 12L6 11L8 11L8 14L6 14L6 15L5 15L5 16L6 16L6 17L8 17L8 18L9 18L9 19L8 19L8 21L9 21L9 23L8 23L8 25L10 25L10 23L12 23L12 24L11 24L11 25L13 25L13 23L14 23L14 21L13 21L13 19L12 19L12 17L11 17L11 20L12 20L12 21L11 21L11 22L10 22L10 18L9 18L9 17L10 17L10 16L9 16L9 17L8 17L8 16L6 16L6 15L9 15L9 14L10 14L10 15L11 15L11 16L13 16L13 15L14 15L14 16L15 16L15 17L16 17L16 19L15 19L15 20L16 20L16 21L17 21L17 23L19 23L19 24L17 24L17 25L19 25L19 24L22 24L22 25L25 25L25 24L24 24L24 22L23 22L23 20L24 20L24 21L25 21L25 20L24 20L24 19L21 19L21 17L23 17L23 16L24 16L24 15L23 15L23 14L24 14L24 13L25 13L25 12L24 12L24 11L23 11L23 10L24 10L24 9L25 9L25 8L21 8L21 9L20 9L20 8L19 8L19 9L20 9L20 11L22 11L22 12L21 12L21 13L20 13L20 14L18 14L18 15L17 15L17 13L19 13L19 10L18 10L18 12L17 12L17 11L16 11L16 10L17 10L17 9L16 9L16 8L15 8L15 11L16 11L16 12L17 12L17 13L15 13L15 12L14 12L14 14L12 14L12 13L13 13L13 12L12 12L12 13L11 13L11 14L10 14L10 13L9 13L9 12L10 12L10 11L14 11L14 9L13 9L13 10L12 10L12 9L10 9L10 8L13 8L13 6L14 6L14 7L15 7L15 6L14 6L14 4L15 4L15 5L16 5L16 7L17 7L17 3L16 3L16 2L17 2L17 1L16 1L16 0L14 0L14 1L16 1L16 2L15 2L15 3L10 3L10 2L11 2L11 1L13 1L13 0L11 0L11 1L10 1L10 0ZM15 3L15 4L16 4L16 3ZM12 4L12 5L10 5L10 6L9 6L9 7L10 7L10 6L11 6L11 7L12 7L12 5L13 5L13 4ZM0 8L0 9L2 9L2 8ZM4 9L4 10L5 10L5 11L6 11L6 10L7 10L7 9ZM22 9L22 10L23 10L23 9ZM21 13L21 14L23 14L23 13ZM15 15L15 16L17 16L17 15ZM21 15L21 16L22 16L22 15ZM0 16L0 17L4 17L4 16ZM13 17L13 18L14 18L14 17ZM17 17L17 20L20 20L20 17ZM18 18L18 19L19 19L19 18ZM12 21L12 22L13 22L13 21ZM20 21L20 22L19 22L19 23L21 23L21 22L22 22L22 23L23 23L23 22L22 22L22 21ZM15 22L15 23L16 23L16 22ZM15 24L15 25L16 25L16 24ZM0 0L0 7L7 7L7 0ZM1 1L1 6L6 6L6 1ZM2 2L2 5L5 5L5 2ZM25 0L18 0L18 7L25 7ZM24 1L19 1L19 6L24 6ZM23 2L20 2L20 5L23 5ZM0 25L7 25L7 18L0 18ZM1 24L6 24L6 19L1 19ZM2 23L5 23L5 20L2 20Z" fill="#000000"/></g></g></svg>
