<?xml version="1.0" encoding="UTF-8"?>
<svg xmlns="http://www.w3.org/2000/svg" version="1.1" width="220" height="220" viewBox="0 0 220 220"><rect x="0" y="0" width="220" height="220" fill="#fefefe"/><g transform="scale(6.667)"><g transform="translate(4.000,4.000)"><path fill-rule="evenodd" d="M11 0L11 1L10 1L10 2L9 2L9 1L8 1L8 2L9 2L9 3L8 3L8 4L9 4L9 5L8 5L8 7L9 7L9 8L6 8L6 9L5 9L5 8L0 8L0 9L1 9L1 10L0 10L0 12L3 12L3 11L4 11L4 10L3 10L3 11L1 11L1 10L2 10L2 9L5 9L5 11L9 11L9 12L8 12L8 13L7 13L7 12L6 12L6 13L5 13L5 12L4 12L4 13L3 13L3 14L4 14L4 13L5 13L5 15L7 15L7 16L2 16L2 17L7 17L7 16L8 16L8 19L9 19L9 20L8 20L8 25L10 25L10 24L11 24L11 25L15 25L15 24L12 24L12 23L10 23L10 22L12 22L12 21L14 21L14 22L13 22L13 23L14 23L14 22L15 22L15 23L16 23L16 24L17 24L17 25L25 25L25 22L24 22L24 24L22 24L22 23L23 23L23 20L22 20L22 19L24 19L24 21L25 21L25 18L22 18L22 17L23 17L23 16L22 16L22 17L21 17L21 15L22 15L22 13L23 13L23 15L24 15L24 16L25 16L25 14L24 14L24 13L25 13L25 10L24 10L24 8L23 8L23 11L24 11L24 12L22 12L22 13L21 13L21 12L18 12L18 10L17 10L17 9L18 9L18 8L17 8L17 4L16 4L16 5L15 5L15 3L17 3L17 1L14 1L14 0ZM11 1L11 2L13 2L13 3L9 3L9 4L12 4L12 5L9 5L9 7L10 7L10 8L9 8L9 9L6 9L6 10L9 10L9 11L13 11L13 12L14 12L14 14L16 14L16 15L15 15L15 17L16 17L16 15L17 15L17 16L19 16L19 13L17 13L17 11L15 11L15 10L16 10L16 9L17 9L17 8L16 8L16 6L15 6L15 7L14 7L14 4L13 4L13 3L15 3L15 2L13 2L13 1ZM12 5L12 7L13 7L13 5ZM10 6L10 7L11 7L11 6ZM13 8L13 9L14 9L14 10L13 10L13 11L14 11L14 10L15 10L15 8ZM19 8L19 10L20 10L20 11L22 11L22 10L20 10L20 8ZM21 8L21 9L22 9L22 8ZM9 9L9 10L12 10L12 9ZM10 12L10 13L8 13L8 14L9 14L9 16L10 16L10 18L9 18L9 19L11 19L11 21L12 21L12 20L15 20L15 19L16 19L16 18L14 18L14 17L13 17L13 16L14 16L14 15L13 15L13 13L12 13L12 12ZM15 12L15 13L16 13L16 14L17 14L17 15L18 15L18 14L17 14L17 13L16 13L16 12ZM0 13L0 17L1 17L1 14L2 14L2 13ZM6 13L6 14L7 14L7 13ZM11 13L11 14L12 14L12 13ZM20 13L20 14L21 14L21 13ZM10 15L10 16L11 16L11 15ZM11 17L11 18L12 18L12 19L13 19L13 18L12 18L12 17ZM17 17L17 20L20 20L20 17ZM18 18L18 19L19 19L19 18ZM21 18L21 19L22 19L22 18ZM9 20L9 22L10 22L10 20ZM21 20L21 21L22 21L22 20ZM16 21L16 22L17 22L17 23L21 23L21 22L20 22L20 21L19 21L19 22L17 22L17 21ZM9 23L9 24L10 24L10 23ZM0 0L0 7L7 7L7 0ZM1 1L1 6L6 6L6 1ZM2 2L2 5L5 5L5 2ZM25 0L18 0L18 7L25 7ZM24 1L19 1L19 6L24 6ZM23 2L20 2L20 5L23 5ZM0 25L7 25L7 18L0 18ZM1 24L6 24L6 19L1 19ZM2 23L5 23L5 20L2 20Z" fill="#000000"/></g></g></svg>
