<?xml version="1.0" encoding="UTF-8"?>
<svg xmlns="http://www.w3.org/2000/svg" version="1.1" width="220" height="220" viewBox="0 0 220 220"><rect x="0" y="0" width="220" height="220" fill="#fefefe"/><g transform="scale(6.667)"><g transform="translate(4.000,4.000)"><path fill-rule="evenodd" d="M8 0L8 1L9 1L9 2L8 2L8 5L9 5L9 6L8 6L8 7L9 7L9 6L10 6L10 8L8 8L8 9L7 9L7 8L6 8L6 9L4 9L4 8L0 8L0 9L2 9L2 10L4 10L4 12L3 12L3 11L1 11L1 10L0 10L0 12L3 12L3 16L2 16L2 17L4 17L4 16L5 16L5 17L8 17L8 18L9 18L9 19L11 19L11 18L13 18L13 19L12 19L12 20L9 20L9 21L8 21L8 25L11 25L11 24L12 24L12 20L13 20L13 19L15 19L15 20L14 20L14 23L13 23L13 25L15 25L15 24L14 24L14 23L15 23L15 20L16 20L16 22L18 22L18 25L25 25L25 24L23 24L23 23L24 23L24 22L23 22L23 21L22 21L22 22L21 22L21 19L23 19L23 20L24 20L24 19L25 19L25 15L24 15L24 14L25 14L25 12L23 12L23 11L20 11L20 9L23 9L23 10L24 10L24 9L25 9L25 8L24 8L24 9L23 9L23 8L20 8L20 9L19 9L19 10L18 10L18 12L17 12L17 11L15 11L15 9L16 9L16 10L17 10L17 9L18 9L18 8L14 8L14 10L12 10L12 9L11 9L11 6L10 6L10 4L9 4L9 2L10 2L10 1L11 1L11 2L12 2L12 3L13 3L13 4L12 4L12 7L13 7L13 6L14 6L14 7L15 7L15 5L16 5L16 4L15 4L15 3L16 3L16 2L15 2L15 3L14 3L14 2L12 2L12 0ZM14 0L14 1L15 1L15 0ZM16 0L16 1L17 1L17 0ZM13 4L13 5L14 5L14 4ZM16 6L16 7L17 7L17 6ZM6 9L6 10L7 10L7 11L6 11L6 12L5 12L5 13L6 13L6 14L11 14L11 15L10 15L10 16L12 16L12 17L13 17L13 18L15 18L15 19L16 19L16 16L17 16L17 14L15 14L15 13L13 13L13 12L12 12L12 11L11 11L11 12L10 12L10 10L7 10L7 9ZM19 11L19 13L20 13L20 11ZM6 12L6 13L8 13L8 12ZM9 12L9 13L10 13L10 12ZM21 12L21 15L19 15L19 14L18 14L18 15L19 15L19 16L21 16L21 15L22 15L22 16L24 16L24 15L22 15L22 14L24 14L24 13L22 13L22 12ZM1 13L1 15L0 15L0 16L1 16L1 15L2 15L2 13ZM12 13L12 14L13 14L13 15L15 15L15 16L13 16L13 17L15 17L15 16L16 16L16 15L15 15L15 14L13 14L13 13ZM6 15L6 16L7 16L7 15ZM8 15L8 16L9 16L9 15ZM10 17L10 18L11 18L11 17ZM17 17L17 20L20 20L20 17ZM21 17L21 18L24 18L24 17ZM18 18L18 19L19 19L19 18ZM10 21L10 22L9 22L9 23L10 23L10 22L11 22L11 21ZM19 23L19 24L20 24L20 23ZM21 23L21 24L22 24L22 23ZM0 0L0 7L7 7L7 0ZM1 1L1 6L6 6L6 1ZM2 2L2 5L5 5L5 2ZM25 0L18 0L18 7L25 7ZM24 1L19 1L19 6L24 6ZM23 2L20 2L20 5L23 5ZM0 25L7 25L7 18L0 18ZM1 24L6 24L6 19L1 19ZM2 23L5 23L5 20L2 20Z" fill="#000000"/></g></g></svg>
