<?xml version="1.0" encoding="UTF-8"?>
<svg xmlns="http://www.w3.org/2000/svg" version="1.1" width="220" height="220" viewBox="0 0 220 220"><rect x="0" y="0" width="220" height="220" fill="#fefefe"/><g transform="scale(6.667)"><g transform="translate(4.000,4.000)"><path fill-rule="evenodd" d="M8 0L8 1L9 1L9 2L8 2L8 5L9 5L9 6L8 6L8 7L9 7L9 6L10 6L10 7L11 7L11 8L8 8L8 10L6 10L6 11L5 11L5 10L4 10L4 8L0 8L0 9L1 9L1 10L0 10L0 11L1 11L1 10L2 10L2 12L3 12L3 13L2 13L2 14L1 14L1 15L0 15L0 16L1 16L1 15L3 15L3 16L4 16L4 17L5 17L5 16L6 16L6 17L7 17L7 16L6 16L6 15L7 15L7 14L6 14L6 13L7 13L7 12L6 12L6 11L8 11L8 10L9 10L9 11L10 11L10 10L11 10L11 12L12 12L12 15L13 15L13 14L14 14L14 16L11 16L11 14L9 14L9 15L8 15L8 16L10 16L10 17L11 17L11 18L12 18L12 19L11 19L11 20L13 20L13 18L15 18L15 17L16 17L16 21L15 21L15 19L14 19L14 22L12 22L12 21L11 21L11 24L10 24L10 23L9 23L9 22L10 22L10 21L8 21L8 25L15 25L15 24L16 24L16 23L17 23L17 25L25 25L25 24L23 24L23 23L24 23L24 22L23 22L23 21L22 21L22 20L21 20L21 17L22 17L22 19L23 19L23 20L24 20L24 19L25 19L25 15L24 15L24 14L25 14L25 12L23 12L23 11L21 11L21 12L20 12L20 11L19 11L19 10L20 10L20 9L23 9L23 10L24 10L24 9L25 9L25 8L24 8L24 9L23 9L23 8L20 8L20 9L19 9L19 10L18 10L18 11L17 11L17 9L18 9L18 8L17 8L17 6L16 6L16 7L15 7L15 5L17 5L17 4L15 4L15 3L14 3L14 0L11 0L11 1L9 1L9 0ZM16 1L16 2L17 2L17 1ZM9 2L9 5L10 5L10 6L11 6L11 7L12 7L12 6L13 6L13 9L12 9L12 8L11 8L11 9L12 9L12 10L14 10L14 6L13 6L13 5L15 5L15 4L13 4L13 2L12 2L12 3L11 3L11 2ZM10 4L10 5L11 5L11 4ZM12 4L12 5L13 5L13 4ZM6 8L6 9L7 9L7 8ZM2 9L2 10L3 10L3 12L4 12L4 16L5 16L5 15L6 15L6 14L5 14L5 13L6 13L6 12L5 12L5 11L4 11L4 10L3 10L3 9ZM15 9L15 11L14 11L14 13L15 13L15 11L16 11L16 9ZM12 11L12 12L13 12L13 11ZM0 12L0 13L1 13L1 12ZM8 12L8 13L10 13L10 12ZM16 12L16 13L17 13L17 12ZM21 12L21 16L24 16L24 15L22 15L22 14L24 14L24 13L22 13L22 12ZM15 14L15 16L14 16L14 17L15 17L15 16L16 16L16 14ZM19 14L19 15L17 15L17 16L19 16L19 15L20 15L20 14ZM8 17L8 18L9 18L9 20L10 20L10 18L9 18L9 17ZM17 17L17 20L20 20L20 17ZM23 17L23 18L24 18L24 17ZM18 18L18 19L19 19L19 18ZM16 21L16 22L15 22L15 23L14 23L14 24L15 24L15 23L16 23L16 22L17 22L17 21ZM19 21L19 23L18 23L18 24L20 24L20 21ZM21 22L21 24L22 24L22 22ZM0 0L0 7L7 7L7 0ZM1 1L1 6L6 6L6 1ZM2 2L2 5L5 5L5 2ZM25 0L18 0L18 7L25 7ZM24 1L19 1L19 6L24 6ZM23 2L20 2L20 5L23 5ZM0 25L7 25L7 18L0 18ZM1 24L6 24L6 19L1 19ZM2 23L5 23L5 20L2 20Z" fill="#000000"/></g></g></svg>
