<?xml version="1.0" encoding="UTF-8"?>
<svg xmlns="http://www.w3.org/2000/svg" version="1.1" width="220" height="220" viewBox="0 0 220 220"><rect x="0" y="0" width="220" height="220" fill="#fefefe"/><g transform="scale(6.667)"><g transform="translate(4.000,4.000)"><path fill-rule="evenodd" d="M8 0L8 1L9 1L9 6L8 6L8 8L9 8L9 9L8 9L8 10L5 10L5 8L3 8L3 9L2 9L2 8L0 8L0 12L1 12L1 13L0 13L0 17L1 17L1 15L2 15L2 16L3 16L3 17L5 17L5 16L4 16L4 14L5 14L5 15L9 15L9 16L10 16L10 14L9 14L9 13L10 13L10 12L11 12L11 14L12 14L12 13L13 13L13 11L15 11L15 12L14 12L14 15L15 15L15 16L16 16L16 20L15 20L15 17L14 17L14 16L13 16L13 17L14 17L14 18L11 18L11 19L10 19L10 17L8 17L8 16L6 16L6 17L8 17L8 18L9 18L9 20L8 20L8 22L9 22L9 23L8 23L8 25L9 25L9 24L10 24L10 25L11 25L11 23L12 23L12 21L13 21L13 20L14 20L14 21L16 21L16 22L13 22L13 23L15 23L15 24L16 24L16 25L17 25L17 24L16 24L16 23L18 23L18 25L19 25L19 24L21 24L21 25L22 25L22 24L24 24L24 25L25 25L25 21L24 21L24 19L25 19L25 18L24 18L24 16L25 16L25 14L24 14L24 13L25 13L25 10L24 10L24 9L25 9L25 8L24 8L24 9L19 9L19 8L18 8L18 9L19 9L19 10L21 10L21 12L24 12L24 13L23 13L23 14L21 14L21 13L20 13L20 15L19 15L19 16L16 16L16 15L18 15L18 14L17 14L17 10L16 10L16 9L17 9L17 6L16 6L16 7L15 7L15 5L14 5L14 7L13 7L13 5L11 5L11 3L13 3L13 4L14 4L14 2L11 2L11 0L10 0L10 1L9 1L9 0ZM12 0L12 1L13 1L13 0ZM14 0L14 1L15 1L15 0ZM16 0L16 2L15 2L15 4L16 4L16 5L17 5L17 3L16 3L16 2L17 2L17 0ZM10 2L10 3L11 3L11 2ZM10 5L10 6L9 6L9 8L10 8L10 6L11 6L11 9L12 9L12 11L11 11L11 12L12 12L12 11L13 11L13 10L15 10L15 9L16 9L16 8L15 8L15 9L14 9L14 8L13 8L13 7L12 7L12 6L11 6L11 5ZM6 8L6 9L7 9L7 8ZM1 9L1 11L2 11L2 15L3 15L3 14L4 14L4 12L5 12L5 13L6 13L6 14L8 14L8 13L9 13L9 11L10 11L10 10L8 10L8 13L6 13L6 12L7 12L7 11L4 11L4 12L3 12L3 10L4 10L4 9L3 9L3 10L2 10L2 9ZM22 10L22 11L24 11L24 10ZM18 12L18 13L19 13L19 12ZM20 15L20 16L21 16L21 21L19 21L19 22L18 22L18 23L20 23L20 22L23 22L23 19L24 19L24 18L22 18L22 16L21 16L21 15ZM23 15L23 16L24 16L24 15ZM11 16L11 17L12 17L12 16ZM17 17L17 20L20 20L20 17ZM18 18L18 19L19 19L19 18ZM11 19L11 21L10 21L10 20L9 20L9 21L10 21L10 23L11 23L11 21L12 21L12 20L13 20L13 19ZM21 23L21 24L22 24L22 23ZM12 24L12 25L13 25L13 24ZM0 0L0 7L7 7L7 0ZM1 1L1 6L6 6L6 1ZM2 2L2 5L5 5L5 2ZM25 0L18 0L18 7L25 7ZM24 1L19 1L19 6L24 6ZM23 2L20 2L20 5L23 5ZM0 25L7 25L7 18L0 18ZM1 24L6 24L6 19L1 19ZM2 23L5 23L5 20L2 20Z" fill="#000000"/></g></g></svg>
